# xmcd
#
# Track frame offsets:
#	150
#	15695
#	31240
#	47408
#	63623
#	78571
#	98041
#	110349
#	127317
#	144693
#	155972
#	170519
#
# Disc length: 2495 seconds
#
# Revision: 0
# Processed by: cddbd v1.5.2PL0 Copyright (c) Steve Scherf et al.
# Submitted via: audiograbber 1.83.01
#
DISCID=a709bd0c
DTITLE=Karpatia - Idok szava
DYEAR=2008
DGENRE=
TTITLE0=Hallom az idok szavat
TTITLE1=Akkor megyek
TTITLE2=Ebredj magyar!
TTITLE3=Mezeskalacs
TTITLE4=Magyar baka
TTITLE5=Ha latok csillagot
TTITLE6=Szarba szokott a Banati buza
TTITLE7=Rongyos garda
TTITLE8=Ha majd a nyarunknak vege
TTITLE9=Kraszna horka
TTITLE10=Nyakas a paraszt gazda
TTITLE11=Csango himnusz
EXTD=
EXTT0=
EXTT1=
EXTT2=
EXTT3=
EXTT4=
EXTT5=
EXTT6=
EXTT7=
EXTT8=
EXTT9=
EXTT10=
EXTT11=
PLAYORDER=
